<svg width="208" height="153" viewBox="0 0 208 153" fill="none" xmlns="http://www.w3.org/2000/svg">
<g filter="url(#filter0_d_4_38)">
<path fill-rule="evenodd" clip-rule="evenodd" d="M170.458 72.7191C163.539 70.8041 156.366 74.9005 154.437 81.8684C152.509 88.8364 156.555 96.0376 163.475 97.9526C170.395 99.8676 177.567 95.7711 179.495 88.8032C181.424 81.8352 177.378 74.6341 170.458 72.7191ZM98.4161 52.7816C91.4965 50.8666 84.3239 54.9631 82.3956 61.931C80.4672 68.899 84.5132 76.1001 91.4328 78.0151C98.3523 79.9301 105.525 75.8337 107.454 68.8658C109.382 61.8978 105.336 54.6966 98.4161 52.7816ZM136.739 15.8472L134.719 16.6466L105.658 28.1497L85.2321 27.6752C79.6167 27.5442 74.5835 31.0475 72.6749 36.2865L72.3542 37.2888L66.2439 59.368L70.6586 61.8759L75.4301 64.5866C75.4984 63.1022 75.7335 61.6297 76.1308 60.1973C79.0234 49.7454 89.7825 43.6009 100.162 46.4734C110.541 49.3458 116.611 60.1475 113.718 70.5994C113.106 72.8113 112.141 74.8304 110.903 76.612L147.497 86.7393C147.347 84.5164 147.576 82.2829 148.173 80.1348C151.066 69.6829 161.824 63.5383 172.204 66.4109C182.583 69.2833 188.653 80.085 185.76 90.5369C185.495 91.4962 185.163 92.4189 184.771 93.3019L193.047 88.5752L201.386 58.4451L200.419 56.2886L189.995 33.0294L188.745 30.2397L136.739 15.8472ZM137.422 29.6191L179.388 41.2331L186.335 56.7386L125.579 39.9246L122.997 35.3285L137.422 29.6191Z" fill="#1E2A38"/>
</g>
<path d="M11.16 139.252C9.408 139.252 7.824 138.952 6.408 138.352C5.016 137.752 3.912 136.888 3.096 135.76C2.28 134.632 1.86 133.3 1.836 131.764H7.236C7.308 132.796 7.668 133.612 8.316 134.212C8.988 134.812 9.9 135.112 11.052 135.112C12.228 135.112 13.152 134.836 13.824 134.284C14.496 133.708 14.832 132.964 14.832 132.052C14.832 131.308 14.604 130.696 14.148 130.216C13.692 129.736 13.116 129.364 12.42 129.1C11.748 128.812 10.812 128.5 9.612 128.164C7.98 127.684 6.648 127.216 5.616 126.76C4.608 126.28 3.732 125.572 2.988 124.636C2.268 123.676 1.908 122.404 1.908 120.82C1.908 119.332 2.28 118.036 3.024 116.932C3.768 115.828 4.812 114.988 6.156 114.412C7.5 113.812 9.036 113.512 10.764 113.512C13.356 113.512 15.456 114.148 17.064 115.42C18.696 116.668 19.596 118.42 19.764 120.676H14.22C14.172 119.812 13.8 119.104 13.104 118.552C12.432 117.976 11.532 117.688 10.404 117.688C9.42 117.688 8.628 117.94 8.028 118.444C7.452 118.948 7.164 119.68 7.164 120.64C7.164 121.312 7.38 121.876 7.812 122.332C8.268 122.764 8.82 123.124 9.468 123.412C10.14 123.676 11.076 123.988 12.276 124.348C13.908 124.828 15.24 125.308 16.272 125.788C17.304 126.268 18.192 126.988 18.936 127.948C19.68 128.908 20.052 130.168 20.052 131.728C20.052 133.072 19.704 134.32 19.008 135.472C18.312 136.624 17.292 137.548 15.948 138.244C14.604 138.916 13.008 139.252 11.16 139.252ZM42.9615 128.596C42.9615 129.316 42.9135 129.964 42.8175 130.54H28.2375C28.3575 131.98 28.8615 133.108 29.7495 133.924C30.6375 134.74 31.7295 135.148 33.0255 135.148C34.8975 135.148 36.2295 134.344 37.0215 132.736H42.4575C41.8815 134.656 40.7775 136.24 39.1455 137.488C37.5135 138.712 35.5095 139.324 33.1335 139.324C31.2135 139.324 29.4855 138.904 27.9495 138.064C26.4375 137.2 25.2495 135.988 24.3855 134.428C23.5455 132.868 23.1255 131.068 23.1255 129.028C23.1255 126.964 23.5455 125.152 24.3855 123.592C25.2255 122.032 26.4015 120.832 27.9135 119.992C29.4255 119.152 31.1655 118.732 33.1335 118.732C35.0295 118.732 36.7215 119.14 38.2095 119.956C39.7215 120.772 40.8855 121.936 41.7015 123.448C42.5415 124.936 42.9615 126.652 42.9615 128.596ZM37.7415 127.156C37.7175 125.86 37.2495 124.828 36.3375 124.06C35.4255 123.268 34.3095 122.872 32.9895 122.872C31.7415 122.872 30.6855 123.256 29.8215 124.024C28.9815 124.768 28.4655 125.812 28.2735 127.156H37.7415ZM51.6803 122.152C52.3283 121.096 53.1683 120.268 54.2003 119.668C55.2563 119.068 56.4563 118.768 57.8003 118.768V124.06H56.4683C54.8843 124.06 53.6843 124.432 52.8683 125.176C52.0763 125.92 51.6803 127.216 51.6803 129.064V139H46.6403V119.056H51.6803V122.152ZM69.5109 134.356L74.5509 119.056H79.9149L72.5349 139H66.4149L59.0709 119.056H64.4709L69.5109 134.356ZM85.3017 116.68C84.4137 116.68 83.6697 116.404 83.0697 115.852C82.4937 115.276 82.2057 114.568 82.2057 113.728C82.2057 112.888 82.4937 112.192 83.0697 111.64C83.6697 111.064 84.4137 110.776 85.3017 110.776C86.1897 110.776 86.9217 111.064 87.4977 111.64C88.0977 112.192 88.3977 112.888 88.3977 113.728C88.3977 114.568 88.0977 115.276 87.4977 115.852C86.9217 116.404 86.1897 116.68 85.3017 116.68ZM87.7857 119.056V139H82.7457V119.056H87.7857ZM91.4692 129.028C91.4692 126.964 91.8893 125.164 92.7293 123.628C93.5693 122.068 94.7333 120.868 96.2213 120.028C97.7093 119.164 99.4133 118.732 101.333 118.732C103.805 118.732 105.845 119.356 107.453 120.604C109.085 121.828 110.177 123.556 110.729 125.788H105.293C105.005 124.924 104.513 124.252 103.817 123.772C103.145 123.268 102.305 123.016 101.297 123.016C99.8573 123.016 98.7173 123.544 97.8773 124.6C97.0373 125.632 96.6173 127.108 96.6173 129.028C96.6173 130.924 97.0373 132.4 97.8773 133.456C98.7173 134.488 99.8573 135.004 101.297 135.004C103.337 135.004 104.669 134.092 105.293 132.268H110.729C110.177 134.428 109.085 136.144 107.453 137.416C105.821 138.688 103.781 139.324 101.333 139.324C99.4133 139.324 97.7093 138.904 96.2213 138.064C94.7333 137.2 93.5693 136 92.7293 134.464C91.8893 132.904 91.4692 131.092 91.4692 129.028ZM132.962 128.596C132.962 129.316 132.914 129.964 132.818 130.54H118.238C118.358 131.98 118.862 133.108 119.75 133.924C120.638 134.74 121.73 135.148 123.026 135.148C124.898 135.148 126.23 134.344 127.022 132.736H132.458C131.882 134.656 130.778 136.24 129.146 137.488C127.514 138.712 125.51 139.324 123.134 139.324C121.214 139.324 119.486 138.904 117.95 138.064C116.438 137.2 115.25 135.988 114.386 134.428C113.546 132.868 113.125 131.068 113.125 129.028C113.125 126.964 113.546 125.152 114.386 123.592C115.226 122.032 116.402 120.832 117.914 119.992C119.426 119.152 121.166 118.732 123.134 118.732C125.03 118.732 126.722 119.14 128.21 119.956C129.722 120.772 130.886 121.936 131.702 123.448C132.542 124.936 132.962 126.652 132.962 128.596ZM127.742 127.156C127.718 125.86 127.25 124.828 126.338 124.06C125.426 123.268 124.31 122.872 122.99 122.872C121.742 122.872 120.686 123.256 119.822 124.024C118.982 124.768 118.466 125.812 118.274 127.156H127.742Z" fill="#1E2A38"/>
<g filter="url(#filter1_d_4_38)">
<path d="M6 66L58 77L145 99H6V66Z" fill="#FF6B35"/>
</g>
<path d="M151.74 126.112C153.156 126.376 154.32 127.084 155.232 128.236C156.144 129.388 156.6 130.708 156.6 132.196C156.6 133.54 156.264 134.728 155.592 135.76C154.944 136.768 153.996 137.56 152.748 138.136C151.5 138.712 150.024 139 148.32 139H137.484V113.872H147.852C149.556 113.872 151.02 114.148 152.244 114.7C153.492 115.252 154.428 116.02 155.052 117.004C155.7 117.988 156.024 119.104 156.024 120.352C156.024 121.816 155.628 123.04 154.836 124.024C154.068 125.008 153.036 125.704 151.74 126.112ZM142.524 124.24H147.132C148.332 124.24 149.256 123.976 149.904 123.448C150.552 122.896 150.876 122.116 150.876 121.108C150.876 120.1 150.552 119.32 149.904 118.768C149.256 118.216 148.332 117.94 147.132 117.94H142.524V124.24ZM147.6 134.896C148.824 134.896 149.772 134.608 150.444 134.032C151.14 133.456 151.488 132.64 151.488 131.584C151.488 130.504 151.128 129.664 150.408 129.064C149.688 128.44 148.716 128.128 147.492 128.128H142.524V134.896H147.6ZM159.321 128.956C159.321 126.94 159.717 125.152 160.509 123.592C161.325 122.032 162.417 120.832 163.785 119.992C165.177 119.152 166.725 118.732 168.429 118.732C169.917 118.732 171.213 119.032 172.317 119.632C173.445 120.232 174.345 120.988 175.017 121.9V119.056H180.093V139H175.017V136.084C174.369 137.02 173.469 137.8 172.317 138.424C171.189 139.024 169.881 139.324 168.393 139.324C166.713 139.324 165.177 138.892 163.785 138.028C162.417 137.164 161.325 135.952 160.509 134.392C159.717 132.808 159.321 130.996 159.321 128.956ZM175.017 129.028C175.017 127.804 174.777 126.76 174.297 125.896C173.817 125.008 173.169 124.336 172.353 123.88C171.537 123.4 170.661 123.16 169.725 123.16C168.789 123.16 167.925 123.388 167.133 123.844C166.341 124.3 165.693 124.972 165.189 125.86C164.709 126.724 164.469 127.756 164.469 128.956C164.469 130.156 164.709 131.212 165.189 132.124C165.693 133.012 166.341 133.696 167.133 134.176C167.949 134.656 168.813 134.896 169.725 134.896C170.661 134.896 171.537 134.668 172.353 134.212C173.169 133.732 173.817 133.06 174.297 132.196C174.777 131.308 175.017 130.252 175.017 129.028ZM204.095 119.056L191.747 148.432H186.383L190.703 138.496L182.711 119.056H188.363L193.511 132.988L198.731 119.056H204.095Z" fill="#FF6B35"/>
<defs>
<filter id="filter0_d_4_38" x="62.2439" y="15.8472" width="143.142" height="90.5765" filterUnits="userSpaceOnUse" color-interpolation-filters="sRGB">
<feFlood flood-opacity="0" result="BackgroundImageFix"/>
<feColorMatrix in="SourceAlpha" type="matrix" values="0 0 0 0 0 0 0 0 0 0 0 0 0 0 0 0 0 0 127 0" result="hardAlpha"/>
<feOffset dy="4"/>
<feGaussianBlur stdDeviation="2"/>
<feComposite in2="hardAlpha" operator="out"/>
<feColorMatrix type="matrix" values="0 0 0 0 0 0 0 0 0 0 0 0 0 0 0 0 0 0 0.25 0"/>
<feBlend mode="normal" in2="BackgroundImageFix" result="effect1_dropShadow_4_38"/>
<feBlend mode="normal" in="SourceGraphic" in2="effect1_dropShadow_4_38" result="shape"/>
</filter>
<filter id="filter1_d_4_38" x="2" y="66" width="147" height="41" filterUnits="userSpaceOnUse" color-interpolation-filters="sRGB">
<feFlood flood-opacity="0" result="BackgroundImageFix"/>
<feColorMatrix in="SourceAlpha" type="matrix" values="0 0 0 0 0 0 0 0 0 0 0 0 0 0 0 0 0 0 127 0" result="hardAlpha"/>
<feOffset dy="4"/>
<feGaussianBlur stdDeviation="2"/>
<feComposite in2="hardAlpha" operator="out"/>
<feColorMatrix type="matrix" values="0 0 0 0 0 0 0 0 0 0 0 0 0 0 0 0 0 0 0.25 0"/>
<feBlend mode="normal" in2="BackgroundImageFix" result="effect1_dropShadow_4_38"/>
<feBlend mode="normal" in="SourceGraphic" in2="effect1_dropShadow_4_38" result="shape"/>
</filter>
</defs>
</svg>
